<svg xmlns="http://www.w3.org/2000/svg" viewBox="0 0 800 400" width="800" height="400">
  <defs>
    </defs>
  <rect width="800" height="400" fill="url(#hbg)" />
  <circle cx="616" cy="60" r="140" fill="#6366f1" opacity="0.07" />
  <circle cx="720" cy="360" r="90" fill="#6366f1" opacity="0.05" />
  <circle cx="104" cy="320" r="70" fill="#6366f1" opacity="0.06" />
  
  <rect x="470" y="70" width="280" height="260" rx="18" fill="white" opacity="0.85" filter="drop-shadow(0 8px 32px rgba(0,0,0,0.10))" />
  <rect x="490" y="92" width="100" height="9" rx="4" fill="#6366f1" opacity="0.8" />
  <rect x="490" y="112" width="240" height="5" rx="2.5" fill="#e2e8f0" />
  <rect x="490" y="124" width="200" height="5" rx="2.5" fill="#e2e8f0" />
  <rect x="490" y="144" width="240" height="72" rx="10" fill="#e0e7ff" opacity="0.55" />
  <rect x="508" y="160" width="80" height="6" rx="3" fill="#6366f1" opacity="0.6" />
  <rect x="508" y="174" width="140" height="5" rx="2.5" fill="#cbd5e1" />
  <rect x="508" y="185" width="100" height="5" rx="2.5" fill="#cbd5e1" />
  <rect x="490" y="228" width="120" height="9" rx="4" fill="#e2e8f0" />
  <rect x="490" y="244" width="160" height="9" rx="4" fill="#e2e8f0" />
  <rect x="490" y="272" width="96" height="32" rx="10" fill="#6366f1" />
  <text x="538" y="293" font-family="system-ui,sans-serif" font-size="12" font-weight="600" fill="#ffffff" text-anchor="middle">Start free</text>
  
  <text x="50" y="170" font-family="system-ui,-apple-system,sans-serif" font-size="38" font-weight="800" fill="#1e293b">Helpe Webstie App</text>
  <text x="50" y="202" font-family="system-ui,sans-serif" font-size="15" fill="#64748b">The smarter way</text>
  <rect x="50" y="224" width="148" height="40" rx="12" fill="#6366f1" />
  <text x="124" y="249" font-family="system-ui,sans-serif" font-size="14" font-weight="600" fill="white" text-anchor="middle">Get Started →</text>
  <rect x="208" y="224" width="120" height="40" rx="12" fill="rgba(0,0,0,0.04)" stroke="rgba(0,0,0,0.10)" stroke-width="1" />
  <text x="268" y="249" font-family="system-ui,sans-serif" font-size="14" fill="#64748b" text-anchor="middle">See demo</text>
</svg>